<mxfile host="app.diagrams.net" modified="2022-10-07T21:26:13.483Z" agent="5.0 (Macintosh; Intel Mac OS X 10_15_7) AppleWebKit/537.36 (KHTML, like Gecko) Chrome/106.0.0.0 Safari/537.36" etag="Tyms4r36rR85RDjKsqd6" version="20.3.7" type="github">
  <diagram id="7VspsfmFrKMIWoe87VX5" name="Page-1">
    <mxGraphModel dx="2230" dy="764" grid="1" gridSize="10" guides="1" tooltips="1" connect="1" arrows="1" fold="1" page="1" pageScale="1" pageWidth="850" pageHeight="1100" math="0" shadow="0">
      <root>
        <mxCell id="0" />
        <mxCell id="1" parent="0" />
        <mxCell id="6W57_3QFYtR6JOlb58nx-1" value="&amp;lt;&amp;lt;SuperClass&amp;gt;&amp;gt;&lt;br&gt;Adventurer&amp;nbsp;" style="rounded=0;whiteSpace=wrap;html=1;" vertex="1" parent="1">
          <mxGeometry x="39.38" y="30" width="130.62" height="40" as="geometry" />
        </mxCell>
        <mxCell id="6W57_3QFYtR6JOlb58nx-89" style="edgeStyle=orthogonalEdgeStyle;rounded=0;orthogonalLoop=1;jettySize=auto;html=1;exitX=1;exitY=1;exitDx=0;exitDy=0;entryX=0;entryY=0.25;entryDx=0;entryDy=0;endArrow=block;endFill=0;" edge="1" parent="1" source="6W57_3QFYtR6JOlb58nx-2" target="6W57_3QFYtR6JOlb58nx-85">
          <mxGeometry relative="1" as="geometry" />
        </mxCell>
        <mxCell id="6W57_3QFYtR6JOlb58nx-2" value="- Room myAdvRoom&lt;br&gt;- ArrayLIst&amp;lt;Treasure&amp;gt; treasures&lt;br&gt;- int damage&lt;br&gt;+ Behavior behavior&lt;br&gt;+ String name" style="rounded=0;whiteSpace=wrap;html=1;align=left;" vertex="1" parent="1">
          <mxGeometry x="40" y="70" width="130" height="100" as="geometry" />
        </mxCell>
        <mxCell id="6W57_3QFYtR6JOlb58nx-3" value="+ Adventurer()&lt;br&gt;+ Adventurer(Room)&lt;br&gt;+ Roll()&lt;br&gt;+ getMyRoom()&lt;br&gt;+ getTreasure()&lt;br&gt;+ getDamage()&lt;br&gt;+ setMyRoom()&lt;br&gt;+ setTreasure()&lt;br&gt;+ setDamage()&lt;br&gt;+ isTreasure()&lt;br&gt;+ setNewRoom()&lt;br&gt;+ combat()&lt;br&gt;+ setComatAlg(a: alg)&lt;br&gt;+compareTreasure&lt;br&gt;(ArrayList&amp;lt;Treasure&amp;gt;)&lt;br&gt;+ publish()" style="rounded=0;whiteSpace=wrap;html=1;align=left;" vertex="1" parent="1">
          <mxGeometry x="40" y="170" width="130" height="230" as="geometry" />
        </mxCell>
        <mxCell id="6W57_3QFYtR6JOlb58nx-18" style="edgeStyle=orthogonalEdgeStyle;rounded=0;orthogonalLoop=1;jettySize=auto;html=1;exitX=0.5;exitY=0;exitDx=0;exitDy=0;entryX=0.5;entryY=1;entryDx=0;entryDy=0;endArrow=block;endFill=0;" edge="1" parent="1" source="6W57_3QFYtR6JOlb58nx-4" target="6W57_3QFYtR6JOlb58nx-3">
          <mxGeometry relative="1" as="geometry" />
        </mxCell>
        <mxCell id="6W57_3QFYtR6JOlb58nx-4" value="&amp;lt;&amp;lt;SubClass&amp;gt;&amp;gt;&lt;br&gt;Brawler" style="rounded=0;whiteSpace=wrap;html=1;" vertex="1" parent="1">
          <mxGeometry x="50" y="412.5" width="100" height="35" as="geometry" />
        </mxCell>
        <mxCell id="6W57_3QFYtR6JOlb58nx-5" value="+ Behavior brawlBehavior&lt;br&gt;+ SearchBehavior search&lt;br&gt;- String name" style="rounded=0;whiteSpace=wrap;html=1;align=left;" vertex="1" parent="1">
          <mxGeometry x="50" y="445" width="100" height="75" as="geometry" />
        </mxCell>
        <mxCell id="6W57_3QFYtR6JOlb58nx-6" value="+ Brawler()&lt;br&gt;+ executeSearch&lt;br&gt;Strategy(Room)&lt;br&gt;" style="rounded=0;whiteSpace=wrap;html=1;" vertex="1" parent="1">
          <mxGeometry x="50" y="520" width="100" height="60" as="geometry" />
        </mxCell>
        <mxCell id="6W57_3QFYtR6JOlb58nx-19" style="edgeStyle=orthogonalEdgeStyle;rounded=0;orthogonalLoop=1;jettySize=auto;html=1;exitX=0.5;exitY=0;exitDx=0;exitDy=0;entryX=1;entryY=0.75;entryDx=0;entryDy=0;endArrow=block;endFill=0;" edge="1" parent="1" source="6W57_3QFYtR6JOlb58nx-7" target="6W57_3QFYtR6JOlb58nx-3">
          <mxGeometry relative="1" as="geometry" />
        </mxCell>
        <mxCell id="6W57_3QFYtR6JOlb58nx-7" value="&amp;lt;&amp;lt;SubClass&amp;gt;&amp;gt;&lt;br&gt;Runner" style="rounded=0;whiteSpace=wrap;html=1;" vertex="1" parent="1">
          <mxGeometry x="160" y="400" width="100" height="30" as="geometry" />
        </mxCell>
        <mxCell id="6W57_3QFYtR6JOlb58nx-8" value="+ Behavior runBehavior&lt;br&gt;+ runBehavior search&lt;br&gt;- String name" style="rounded=0;whiteSpace=wrap;html=1;align=left;" vertex="1" parent="1">
          <mxGeometry x="160" y="430" width="100" height="75" as="geometry" />
        </mxCell>
        <mxCell id="6W57_3QFYtR6JOlb58nx-9" value="+ Runner()&lt;br&gt;+ executeSearch&lt;br&gt;Strategy(Room)" style="rounded=0;whiteSpace=wrap;html=1;" vertex="1" parent="1">
          <mxGeometry x="160" y="505" width="100" height="60" as="geometry" />
        </mxCell>
        <mxCell id="6W57_3QFYtR6JOlb58nx-17" style="edgeStyle=orthogonalEdgeStyle;rounded=0;orthogonalLoop=1;jettySize=auto;html=1;exitX=0;exitY=0.5;exitDx=0;exitDy=0;entryX=0;entryY=0.75;entryDx=0;entryDy=0;endArrow=block;endFill=0;" edge="1" parent="1" source="6W57_3QFYtR6JOlb58nx-10" target="6W57_3QFYtR6JOlb58nx-3">
          <mxGeometry relative="1" as="geometry">
            <mxPoint x="30" y="370" as="targetPoint" />
            <Array as="points">
              <mxPoint x="20" y="613" />
              <mxPoint x="20" y="335" />
            </Array>
          </mxGeometry>
        </mxCell>
        <mxCell id="6W57_3QFYtR6JOlb58nx-10" value="&lt;span style=&quot;font-weight: normal;&quot;&gt;&amp;lt;&amp;lt;SubClass&amp;gt;&amp;gt;&lt;br&gt;Sneaker&lt;/span&gt;" style="rounded=0;whiteSpace=wrap;html=1;fontStyle=1" vertex="1" parent="1">
          <mxGeometry x="50" y="600" width="100" height="25" as="geometry" />
        </mxCell>
        <mxCell id="6W57_3QFYtR6JOlb58nx-11" value="+ Behavior sneakBehavior&lt;br&gt;+ SearchBehavior search&lt;br&gt;- String name" style="rounded=0;whiteSpace=wrap;html=1;align=left;" vertex="1" parent="1">
          <mxGeometry x="50" y="625" width="100" height="75" as="geometry" />
        </mxCell>
        <mxCell id="6W57_3QFYtR6JOlb58nx-12" value="+ Sneaker()&lt;br&gt;+ executeSearch&lt;br&gt;Strategy(Room)" style="rounded=0;whiteSpace=wrap;html=1;" vertex="1" parent="1">
          <mxGeometry x="50" y="700" width="100" height="60" as="geometry" />
        </mxCell>
        <mxCell id="6W57_3QFYtR6JOlb58nx-20" style="edgeStyle=orthogonalEdgeStyle;rounded=0;orthogonalLoop=1;jettySize=auto;html=1;exitX=1;exitY=0.5;exitDx=0;exitDy=0;entryX=1;entryY=0.5;entryDx=0;entryDy=0;endArrow=block;endFill=0;" edge="1" parent="1" source="6W57_3QFYtR6JOlb58nx-14" target="6W57_3QFYtR6JOlb58nx-3">
          <mxGeometry relative="1" as="geometry">
            <mxPoint x="260" y="360" as="targetPoint" />
          </mxGeometry>
        </mxCell>
        <mxCell id="6W57_3QFYtR6JOlb58nx-14" value="&lt;span style=&quot;font-weight: normal;&quot;&gt;&amp;lt;&amp;lt;SubClass&amp;gt;&amp;gt;&lt;br&gt;Thief&lt;br&gt;&lt;/span&gt;" style="rounded=0;whiteSpace=wrap;html=1;fontStyle=1" vertex="1" parent="1">
          <mxGeometry x="160" y="600" width="100" height="25" as="geometry" />
        </mxCell>
        <mxCell id="6W57_3QFYtR6JOlb58nx-15" value="+ Behavior thiefBehavior&lt;br&gt;+ SearchBehavior search&lt;br&gt;- String name" style="rounded=0;whiteSpace=wrap;html=1;align=left;" vertex="1" parent="1">
          <mxGeometry x="160" y="625" width="100" height="75" as="geometry" />
        </mxCell>
        <mxCell id="6W57_3QFYtR6JOlb58nx-16" value="+ Thief()&lt;br&gt;+ executeSearch&lt;br&gt;Strategy(Room)" style="rounded=0;whiteSpace=wrap;html=1;" vertex="1" parent="1">
          <mxGeometry x="160" y="700" width="100" height="60" as="geometry" />
        </mxCell>
        <mxCell id="6W57_3QFYtR6JOlb58nx-21" value="&amp;lt;&amp;lt;Abstract&amp;gt;&amp;gt;&lt;br&gt;Behavior" style="rounded=0;whiteSpace=wrap;html=1;" vertex="1" parent="1">
          <mxGeometry x="70" y="810" width="120" height="30" as="geometry" />
        </mxCell>
        <mxCell id="6W57_3QFYtR6JOlb58nx-22" value="+fight(Room)" style="rounded=0;whiteSpace=wrap;html=1;" vertex="1" parent="1">
          <mxGeometry x="70" y="840" width="120" height="30" as="geometry" />
        </mxCell>
        <mxCell id="6W57_3QFYtR6JOlb58nx-27" style="edgeStyle=orthogonalEdgeStyle;rounded=0;orthogonalLoop=1;jettySize=auto;html=1;exitX=0.5;exitY=0;exitDx=0;exitDy=0;endArrow=blockThin;endFill=0;" edge="1" parent="1" source="6W57_3QFYtR6JOlb58nx-23" target="6W57_3QFYtR6JOlb58nx-22">
          <mxGeometry relative="1" as="geometry" />
        </mxCell>
        <mxCell id="6W57_3QFYtR6JOlb58nx-23" value="Untrained" style="rounded=0;whiteSpace=wrap;html=1;" vertex="1" parent="1">
          <mxGeometry x="30" y="900" width="70" height="20" as="geometry" />
        </mxCell>
        <mxCell id="6W57_3QFYtR6JOlb58nx-28" style="edgeStyle=orthogonalEdgeStyle;rounded=0;orthogonalLoop=1;jettySize=auto;html=1;exitX=0.5;exitY=0;exitDx=0;exitDy=0;entryX=0.75;entryY=1;entryDx=0;entryDy=0;endArrow=block;endFill=0;" edge="1" parent="1" source="6W57_3QFYtR6JOlb58nx-24" target="6W57_3QFYtR6JOlb58nx-22">
          <mxGeometry relative="1" as="geometry" />
        </mxCell>
        <mxCell id="6W57_3QFYtR6JOlb58nx-24" value="Trained" style="rounded=0;whiteSpace=wrap;html=1;" vertex="1" parent="1">
          <mxGeometry x="110" y="900" width="70" height="20" as="geometry" />
        </mxCell>
        <mxCell id="6W57_3QFYtR6JOlb58nx-29" style="edgeStyle=orthogonalEdgeStyle;rounded=0;orthogonalLoop=1;jettySize=auto;html=1;exitX=0.5;exitY=0;exitDx=0;exitDy=0;entryX=1;entryY=0.25;entryDx=0;entryDy=0;endArrow=block;endFill=0;" edge="1" parent="1" source="6W57_3QFYtR6JOlb58nx-25" target="6W57_3QFYtR6JOlb58nx-22">
          <mxGeometry relative="1" as="geometry" />
        </mxCell>
        <mxCell id="6W57_3QFYtR6JOlb58nx-25" value="Stealth" style="rounded=0;whiteSpace=wrap;html=1;" vertex="1" parent="1">
          <mxGeometry x="190" y="900" width="70" height="20" as="geometry" />
        </mxCell>
        <mxCell id="6W57_3QFYtR6JOlb58nx-30" style="edgeStyle=orthogonalEdgeStyle;rounded=0;orthogonalLoop=1;jettySize=auto;html=1;exitX=0;exitY=0.5;exitDx=0;exitDy=0;entryX=0;entryY=0.5;entryDx=0;entryDy=0;endArrow=block;endFill=0;" edge="1" parent="1" source="6W57_3QFYtR6JOlb58nx-26" target="6W57_3QFYtR6JOlb58nx-21">
          <mxGeometry relative="1" as="geometry" />
        </mxCell>
        <mxCell id="6W57_3QFYtR6JOlb58nx-26" value="Expert" style="rounded=0;whiteSpace=wrap;html=1;" vertex="1" parent="1">
          <mxGeometry x="30" y="940" width="70" height="20" as="geometry" />
        </mxCell>
        <mxCell id="6W57_3QFYtR6JOlb58nx-32" style="edgeStyle=orthogonalEdgeStyle;rounded=0;orthogonalLoop=1;jettySize=auto;html=1;exitX=0;exitY=0.25;exitDx=0;exitDy=0;entryX=1;entryY=0.25;entryDx=0;entryDy=0;endArrow=block;endFill=0;" edge="1" parent="1" source="6W57_3QFYtR6JOlb58nx-31" target="6W57_3QFYtR6JOlb58nx-21">
          <mxGeometry relative="1" as="geometry" />
        </mxCell>
        <mxCell id="6W57_3QFYtR6JOlb58nx-31" value="&amp;lt;&amp;lt;Abstract&amp;gt;&amp;gt;&lt;br&gt;celebrationDectorator" style="rounded=0;whiteSpace=wrap;html=1;" vertex="1" parent="1">
          <mxGeometry x="250" y="810" width="120" height="30" as="geometry" />
        </mxCell>
        <mxCell id="6W57_3QFYtR6JOlb58nx-42" style="edgeStyle=orthogonalEdgeStyle;rounded=0;orthogonalLoop=1;jettySize=auto;html=1;exitX=0.5;exitY=0;exitDx=0;exitDy=0;entryX=0.5;entryY=1;entryDx=0;entryDy=0;endArrow=block;endFill=0;" edge="1" parent="1" source="6W57_3QFYtR6JOlb58nx-34" target="6W57_3QFYtR6JOlb58nx-31">
          <mxGeometry relative="1" as="geometry" />
        </mxCell>
        <mxCell id="6W57_3QFYtR6JOlb58nx-34" value="Shout" style="rounded=0;whiteSpace=wrap;html=1;" vertex="1" parent="1">
          <mxGeometry x="280" y="870" width="50" height="20" as="geometry" />
        </mxCell>
        <mxCell id="6W57_3QFYtR6JOlb58nx-35" value="+Shout()" style="rounded=0;whiteSpace=wrap;html=1;" vertex="1" parent="1">
          <mxGeometry x="280" y="890" width="50" height="20" as="geometry" />
        </mxCell>
        <mxCell id="6W57_3QFYtR6JOlb58nx-43" style="edgeStyle=orthogonalEdgeStyle;rounded=0;orthogonalLoop=1;jettySize=auto;html=1;exitX=0.5;exitY=0;exitDx=0;exitDy=0;entryX=0.75;entryY=1;entryDx=0;entryDy=0;endArrow=block;endFill=0;" edge="1" parent="1" source="6W57_3QFYtR6JOlb58nx-36" target="6W57_3QFYtR6JOlb58nx-31">
          <mxGeometry relative="1" as="geometry" />
        </mxCell>
        <mxCell id="6W57_3QFYtR6JOlb58nx-36" value="Dance" style="rounded=0;whiteSpace=wrap;html=1;" vertex="1" parent="1">
          <mxGeometry x="340" y="870" width="50" height="20" as="geometry" />
        </mxCell>
        <mxCell id="6W57_3QFYtR6JOlb58nx-37" value="+Dance()" style="rounded=0;whiteSpace=wrap;html=1;" vertex="1" parent="1">
          <mxGeometry x="340" y="890" width="50" height="20" as="geometry" />
        </mxCell>
        <mxCell id="6W57_3QFYtR6JOlb58nx-44" style="edgeStyle=orthogonalEdgeStyle;rounded=0;orthogonalLoop=1;jettySize=auto;html=1;exitX=0.5;exitY=0;exitDx=0;exitDy=0;entryX=1;entryY=0.75;entryDx=0;entryDy=0;endArrow=block;endFill=0;" edge="1" parent="1" source="6W57_3QFYtR6JOlb58nx-38" target="6W57_3QFYtR6JOlb58nx-31">
          <mxGeometry relative="1" as="geometry" />
        </mxCell>
        <mxCell id="6W57_3QFYtR6JOlb58nx-38" value="Jump" style="rounded=0;whiteSpace=wrap;html=1;" vertex="1" parent="1">
          <mxGeometry x="400" y="870" width="50" height="20" as="geometry" />
        </mxCell>
        <mxCell id="6W57_3QFYtR6JOlb58nx-39" value="+Jump()" style="rounded=0;whiteSpace=wrap;html=1;" vertex="1" parent="1">
          <mxGeometry x="400" y="890" width="50" height="20" as="geometry" />
        </mxCell>
        <mxCell id="6W57_3QFYtR6JOlb58nx-45" style="edgeStyle=orthogonalEdgeStyle;rounded=0;orthogonalLoop=1;jettySize=auto;html=1;exitX=0.5;exitY=0;exitDx=0;exitDy=0;entryX=1;entryY=0;entryDx=0;entryDy=0;endArrow=block;endFill=0;" edge="1" parent="1" source="6W57_3QFYtR6JOlb58nx-40" target="6W57_3QFYtR6JOlb58nx-31">
          <mxGeometry relative="1" as="geometry" />
        </mxCell>
        <mxCell id="6W57_3QFYtR6JOlb58nx-40" value="Spin" style="rounded=0;whiteSpace=wrap;html=1;" vertex="1" parent="1">
          <mxGeometry x="460" y="870" width="50" height="20" as="geometry" />
        </mxCell>
        <mxCell id="6W57_3QFYtR6JOlb58nx-41" value="+Spin()" style="rounded=0;whiteSpace=wrap;html=1;" vertex="1" parent="1">
          <mxGeometry x="460" y="890" width="50" height="20" as="geometry" />
        </mxCell>
        <mxCell id="6W57_3QFYtR6JOlb58nx-46" value="&amp;lt;&amp;lt;Interface&amp;gt;&amp;gt;&lt;br&gt;searchBehavior" style="rounded=0;whiteSpace=wrap;html=1;" vertex="1" parent="1">
          <mxGeometry x="260" y="940" width="120" height="30" as="geometry" />
        </mxCell>
        <mxCell id="6W57_3QFYtR6JOlb58nx-47" value="+search(Room)" style="rounded=0;whiteSpace=wrap;html=1;" vertex="1" parent="1">
          <mxGeometry x="260" y="970" width="120" height="30" as="geometry" />
        </mxCell>
        <mxCell id="6W57_3QFYtR6JOlb58nx-51" style="edgeStyle=orthogonalEdgeStyle;rounded=0;orthogonalLoop=1;jettySize=auto;html=1;exitX=0.5;exitY=0;exitDx=0;exitDy=0;entryX=0.25;entryY=1;entryDx=0;entryDy=0;endArrow=block;endFill=0;" edge="1" parent="1" source="6W57_3QFYtR6JOlb58nx-48" target="6W57_3QFYtR6JOlb58nx-47">
          <mxGeometry relative="1" as="geometry" />
        </mxCell>
        <mxCell id="6W57_3QFYtR6JOlb58nx-48" value="Careful" style="rounded=0;whiteSpace=wrap;html=1;" vertex="1" parent="1">
          <mxGeometry x="240" y="1020" width="50" height="20" as="geometry" />
        </mxCell>
        <mxCell id="6W57_3QFYtR6JOlb58nx-52" style="edgeStyle=orthogonalEdgeStyle;rounded=0;orthogonalLoop=1;jettySize=auto;html=1;exitX=0.5;exitY=1;exitDx=0;exitDy=0;entryX=0.5;entryY=1;entryDx=0;entryDy=0;endArrow=block;endFill=0;" edge="1" parent="1" source="6W57_3QFYtR6JOlb58nx-49" target="6W57_3QFYtR6JOlb58nx-47">
          <mxGeometry relative="1" as="geometry" />
        </mxCell>
        <mxCell id="6W57_3QFYtR6JOlb58nx-49" value="Quick" style="rounded=0;whiteSpace=wrap;html=1;direction=west;" vertex="1" parent="1">
          <mxGeometry x="300" y="1020" width="60" height="20" as="geometry" />
        </mxCell>
        <mxCell id="6W57_3QFYtR6JOlb58nx-53" style="edgeStyle=orthogonalEdgeStyle;rounded=0;orthogonalLoop=1;jettySize=auto;html=1;exitX=0.5;exitY=0;exitDx=0;exitDy=0;entryX=0.75;entryY=1;entryDx=0;entryDy=0;endArrow=block;endFill=0;" edge="1" parent="1" source="6W57_3QFYtR6JOlb58nx-50" target="6W57_3QFYtR6JOlb58nx-47">
          <mxGeometry relative="1" as="geometry" />
        </mxCell>
        <mxCell id="6W57_3QFYtR6JOlb58nx-50" value="Careless" style="rounded=0;whiteSpace=wrap;html=1;" vertex="1" parent="1">
          <mxGeometry x="365" y="1020" width="60" height="20" as="geometry" />
        </mxCell>
        <mxCell id="6W57_3QFYtR6JOlb58nx-55" value="" style="endArrow=none;html=1;rounded=0;entryX=0;entryY=0.5;entryDx=0;entryDy=0;exitX=-0.015;exitY=0.218;exitDx=0;exitDy=0;exitPerimeter=0;" edge="1" parent="1" source="6W57_3QFYtR6JOlb58nx-3" target="6W57_3QFYtR6JOlb58nx-47">
          <mxGeometry width="50" height="50" relative="1" as="geometry">
            <mxPoint x="-10" y="110" as="sourcePoint" />
            <mxPoint x="450" y="650" as="targetPoint" />
            <Array as="points">
              <mxPoint x="-20" y="220" />
              <mxPoint x="-20" y="985" />
            </Array>
          </mxGeometry>
        </mxCell>
        <mxCell id="6W57_3QFYtR6JOlb58nx-56" value="Room" style="rounded=0;whiteSpace=wrap;html=1;" vertex="1" parent="1">
          <mxGeometry x="240" y="30" width="130" height="20" as="geometry" />
        </mxCell>
        <mxCell id="6W57_3QFYtR6JOlb58nx-58" value="- bool hasBrawler&lt;br&gt;- bool hasSneaker&lt;br&gt;- bool hasRunner&lt;br&gt;- bool hasThief&lt;br&gt;- bool hasOrbiter&lt;br&gt;- bool hasSeeker&lt;br&gt;- bool hasBlinker&lt;br&gt;+ ArrayLIst&amp;lt;Treasure&amp;gt;&lt;br&gt;treasures" style="rounded=0;whiteSpace=wrap;html=1;align=left;" vertex="1" parent="1">
          <mxGeometry x="240" y="50" width="130" height="130" as="geometry" />
        </mxCell>
        <mxCell id="6W57_3QFYtR6JOlb58nx-59" value="+ [getters for all variables]&lt;br&gt;+ [setters for all variables]" style="rounded=0;whiteSpace=wrap;html=1;align=left;" vertex="1" parent="1">
          <mxGeometry x="240" y="180" width="130" height="60" as="geometry" />
        </mxCell>
        <mxCell id="6W57_3QFYtR6JOlb58nx-60" value="" style="endArrow=none;html=1;rounded=0;entryX=0;entryY=0.5;entryDx=0;entryDy=0;exitX=1;exitY=0.44;exitDx=0;exitDy=0;exitPerimeter=0;" edge="1" parent="1" source="6W57_3QFYtR6JOlb58nx-2" target="6W57_3QFYtR6JOlb58nx-58">
          <mxGeometry width="50" height="50" relative="1" as="geometry">
            <mxPoint x="400" y="390" as="sourcePoint" />
            <mxPoint x="450" y="340" as="targetPoint" />
          </mxGeometry>
        </mxCell>
        <mxCell id="6W57_3QFYtR6JOlb58nx-61" value="&amp;lt;&amp;lt;SuperClass&amp;gt;&amp;gt;&lt;br&gt;Treasure" style="rounded=0;whiteSpace=wrap;html=1;" vertex="1" parent="1">
          <mxGeometry x="405" y="30" width="105" height="30" as="geometry" />
        </mxCell>
        <mxCell id="6W57_3QFYtR6JOlb58nx-62" value="- String Type" style="rounded=0;whiteSpace=wrap;html=1;align=left;" vertex="1" parent="1">
          <mxGeometry x="405" y="60" width="105" height="30" as="geometry" />
        </mxCell>
        <mxCell id="6W57_3QFYtR6JOlb58nx-63" value="+ getType()" style="rounded=0;whiteSpace=wrap;html=1;align=left;direction=south;" vertex="1" parent="1">
          <mxGeometry x="405" y="90" width="105" height="20" as="geometry" />
        </mxCell>
        <mxCell id="6W57_3QFYtR6JOlb58nx-68" style="edgeStyle=orthogonalEdgeStyle;rounded=0;orthogonalLoop=1;jettySize=auto;html=1;exitX=0.5;exitY=0;exitDx=0;exitDy=0;endArrow=block;endFill=0;" edge="1" parent="1" source="6W57_3QFYtR6JOlb58nx-64" target="6W57_3QFYtR6JOlb58nx-63">
          <mxGeometry relative="1" as="geometry" />
        </mxCell>
        <mxCell id="6W57_3QFYtR6JOlb58nx-64" value="&amp;lt;&amp;lt;SubClass&amp;gt;&amp;gt;&lt;br&gt;Sword" style="rounded=0;whiteSpace=wrap;html=1;" vertex="1" parent="1">
          <mxGeometry x="380" y="130" width="90" height="30" as="geometry" />
        </mxCell>
        <mxCell id="6W57_3QFYtR6JOlb58nx-72" style="edgeStyle=orthogonalEdgeStyle;rounded=0;orthogonalLoop=1;jettySize=auto;html=1;exitX=0.75;exitY=0;exitDx=0;exitDy=0;entryX=1;entryY=0.25;entryDx=0;entryDy=0;endArrow=block;endFill=0;" edge="1" parent="1" source="6W57_3QFYtR6JOlb58nx-65" target="6W57_3QFYtR6JOlb58nx-63">
          <mxGeometry relative="1" as="geometry" />
        </mxCell>
        <mxCell id="6W57_3QFYtR6JOlb58nx-65" value="&amp;lt;&amp;lt;SubClass&amp;gt;&amp;gt;&lt;br&gt;Armor" style="rounded=0;whiteSpace=wrap;html=1;" vertex="1" parent="1">
          <mxGeometry x="420" y="180" width="90" height="30" as="geometry" />
        </mxCell>
        <mxCell id="6W57_3QFYtR6JOlb58nx-69" style="edgeStyle=orthogonalEdgeStyle;rounded=0;orthogonalLoop=1;jettySize=auto;html=1;exitX=0.5;exitY=0;exitDx=0;exitDy=0;entryX=0;entryY=0;entryDx=0;entryDy=0;endArrow=block;endFill=0;" edge="1" parent="1" source="6W57_3QFYtR6JOlb58nx-66" target="6W57_3QFYtR6JOlb58nx-63">
          <mxGeometry relative="1" as="geometry" />
        </mxCell>
        <mxCell id="6W57_3QFYtR6JOlb58nx-66" value="&amp;lt;&amp;lt;SubClass&amp;gt;&amp;gt;&lt;br&gt;Gem" style="rounded=0;whiteSpace=wrap;html=1;" vertex="1" parent="1">
          <mxGeometry x="490" y="130" width="80" height="30" as="geometry" />
        </mxCell>
        <mxCell id="6W57_3QFYtR6JOlb58nx-70" style="edgeStyle=orthogonalEdgeStyle;rounded=0;orthogonalLoop=1;jettySize=auto;html=1;exitX=0.75;exitY=0;exitDx=0;exitDy=0;entryX=1;entryY=0.5;entryDx=0;entryDy=0;endArrow=block;endFill=0;" edge="1" parent="1" source="6W57_3QFYtR6JOlb58nx-67" target="6W57_3QFYtR6JOlb58nx-61">
          <mxGeometry relative="1" as="geometry" />
        </mxCell>
        <mxCell id="6W57_3QFYtR6JOlb58nx-67" value="&amp;lt;&amp;lt;SubClass&amp;gt;&amp;gt;&lt;br&gt;Portal" style="rounded=0;whiteSpace=wrap;html=1;" vertex="1" parent="1">
          <mxGeometry x="530" y="175" width="80" height="35" as="geometry" />
        </mxCell>
        <mxCell id="6W57_3QFYtR6JOlb58nx-90" style="edgeStyle=orthogonalEdgeStyle;rounded=0;orthogonalLoop=1;jettySize=auto;html=1;exitX=0.25;exitY=0;exitDx=0;exitDy=0;entryX=0.121;entryY=0.983;entryDx=0;entryDy=0;entryPerimeter=0;endArrow=block;endFill=0;" edge="1" parent="1" source="6W57_3QFYtR6JOlb58nx-73" target="6W57_3QFYtR6JOlb58nx-87">
          <mxGeometry relative="1" as="geometry" />
        </mxCell>
        <mxCell id="6W57_3QFYtR6JOlb58nx-73" value="&amp;lt;&amp;lt;SuperClass&amp;gt;&amp;gt;&lt;br&gt;Creature" style="rounded=0;whiteSpace=wrap;html=1;" vertex="1" parent="1">
          <mxGeometry x="320" y="400" width="210" height="60" as="geometry" />
        </mxCell>
        <mxCell id="6W57_3QFYtR6JOlb58nx-74" value="# Room myRoom&lt;br&gt;# int damage" style="rounded=0;whiteSpace=wrap;html=1;align=left;" vertex="1" parent="1">
          <mxGeometry x="320" y="460" width="210" height="40" as="geometry" />
        </mxCell>
        <mxCell id="6W57_3QFYtR6JOlb58nx-75" value="+ Roll()&lt;br&gt;+ getMyRoom()&lt;br&gt;+ getDamage()&lt;br&gt;+ setMyRoom()&lt;br&gt;+ setDamage()&lt;br&gt;+ findRoom(Room)&lt;br&gt;+ Move(ArrayList&amp;lt;ArrayList&amp;lt;Room&amp;gt;&amp;gt;)&lt;br&gt;+ publish()&lt;br&gt;+ findRoom()&lt;br&gt;+ move()" style="rounded=0;whiteSpace=wrap;html=1;align=left;" vertex="1" parent="1">
          <mxGeometry x="320" y="500" width="210" height="140" as="geometry" />
        </mxCell>
        <mxCell id="6W57_3QFYtR6JOlb58nx-76" value="GameEngine" style="rounded=0;whiteSpace=wrap;html=1;" vertex="1" parent="1">
          <mxGeometry x="580" y="400" width="230" height="60" as="geometry" />
        </mxCell>
        <mxCell id="6W57_3QFYtR6JOlb58nx-82" style="edgeStyle=orthogonalEdgeStyle;rounded=0;orthogonalLoop=1;jettySize=auto;html=1;exitX=0.5;exitY=0;exitDx=0;exitDy=0;entryX=0.25;entryY=1;entryDx=0;entryDy=0;endArrow=block;endFill=0;" edge="1" parent="1" source="6W57_3QFYtR6JOlb58nx-77" target="6W57_3QFYtR6JOlb58nx-75">
          <mxGeometry relative="1" as="geometry" />
        </mxCell>
        <mxCell id="6W57_3QFYtR6JOlb58nx-77" value="&amp;lt;&amp;lt;SubClass&amp;gt;&amp;gt;&lt;br&gt;Orbiter" style="rounded=0;whiteSpace=wrap;html=1;" vertex="1" parent="1">
          <mxGeometry x="280" y="670" width="120" height="40" as="geometry" />
        </mxCell>
        <mxCell id="6W57_3QFYtR6JOlb58nx-81" style="edgeStyle=orthogonalEdgeStyle;rounded=0;orthogonalLoop=1;jettySize=auto;html=1;exitX=0.5;exitY=0;exitDx=0;exitDy=0;entryX=0.75;entryY=1;entryDx=0;entryDy=0;endArrow=block;endFill=0;" edge="1" parent="1" source="6W57_3QFYtR6JOlb58nx-78" target="6W57_3QFYtR6JOlb58nx-75">
          <mxGeometry relative="1" as="geometry" />
        </mxCell>
        <mxCell id="6W57_3QFYtR6JOlb58nx-78" value="&amp;lt;&amp;lt;SubClass&amp;gt;&amp;gt;&lt;br&gt;Blinker" style="rounded=0;whiteSpace=wrap;html=1;" vertex="1" parent="1">
          <mxGeometry x="460" y="670" width="110" height="40" as="geometry" />
        </mxCell>
        <mxCell id="6W57_3QFYtR6JOlb58nx-80" style="edgeStyle=orthogonalEdgeStyle;rounded=0;orthogonalLoop=1;jettySize=auto;html=1;exitX=0.5;exitY=0;exitDx=0;exitDy=0;entryX=0.5;entryY=1;entryDx=0;entryDy=0;endArrow=block;endFill=0;" edge="1" parent="1" source="6W57_3QFYtR6JOlb58nx-79" target="6W57_3QFYtR6JOlb58nx-75">
          <mxGeometry relative="1" as="geometry" />
        </mxCell>
        <mxCell id="6W57_3QFYtR6JOlb58nx-79" value="&amp;lt;&amp;lt;SubClass&amp;gt;&amp;gt;&lt;br&gt;Seeker" style="rounded=0;whiteSpace=wrap;html=1;" vertex="1" parent="1">
          <mxGeometry x="390" y="720" width="100" height="40" as="geometry" />
        </mxCell>
        <mxCell id="6W57_3QFYtR6JOlb58nx-83" value="+ ArrayList&amp;lt;ArralyList&amp;lt;Room&amp;gt;&amp;gt; allRooms&lt;br&gt;+&amp;nbsp;ArrayList&amp;lt;ArralyList&amp;lt;Orbiters&amp;gt;&amp;gt; Orbiters&lt;br&gt;+ ArrayList&amp;lt;ArralyList&amp;lt;Seeker&amp;gt;&amp;gt; Seekers&lt;br&gt;+ ArrayList&amp;lt;ArralyList&amp;lt;Blinker&amp;gt;&amp;gt; Blinkers&lt;br&gt;+ ArrayList&amp;lt;Adventurer&amp;gt; adventureList" style="rounded=0;whiteSpace=wrap;html=1;align=left;" vertex="1" parent="1">
          <mxGeometry x="580" y="460" width="230" height="80" as="geometry" />
        </mxCell>
        <mxCell id="6W57_3QFYtR6JOlb58nx-84" value="+ addAdv()&lt;br&gt;+ initializeRooms()&lt;br&gt;+ findRoom()&lt;br&gt;+ randomRoomOrbiter()&lt;br&gt;+ initializeOrbiterObjects()&lt;br&gt;+ randomRoomSeeker()&lt;br&gt;+ initalizeSeekerObjects()&lt;br&gt;+ randomRoomBlinker()&lt;br&gt;+ initializeBlinkerObjects()&lt;br&gt;+ runGame()&lt;br&gt;+ CreatureCheck(Room)&lt;br&gt;+ fight(Room)&lt;br&gt;+ printGame()&lt;br&gt;" style="rounded=0;whiteSpace=wrap;html=1;align=left;" vertex="1" parent="1">
          <mxGeometry x="580" y="540" width="230" height="200" as="geometry" />
        </mxCell>
        <mxCell id="6W57_3QFYtR6JOlb58nx-85" value="Subject" style="rounded=0;whiteSpace=wrap;html=1;" vertex="1" parent="1">
          <mxGeometry x="350" y="270" width="190" height="30" as="geometry" />
        </mxCell>
        <mxCell id="6W57_3QFYtR6JOlb58nx-86" value="+ ArrayList&amp;lt;Observer&amp;gt; observers&lt;br&gt;" style="rounded=0;whiteSpace=wrap;html=1;" vertex="1" parent="1">
          <mxGeometry x="350" y="300" width="190" height="20" as="geometry" />
        </mxCell>
        <mxCell id="6W57_3QFYtR6JOlb58nx-87" value="+ registerObserver(Observer)&lt;br&gt;+ removeObserver(Observer)&lt;br&gt;+ notifyObservers(Message)" style="rounded=0;whiteSpace=wrap;html=1;" vertex="1" parent="1">
          <mxGeometry x="350" y="320" width="190" height="60" as="geometry" />
        </mxCell>
        <mxCell id="6W57_3QFYtR6JOlb58nx-88" value="&amp;lt;&amp;lt;Interface&amp;gt;&amp;gt;&lt;br&gt;Observer" style="rounded=0;whiteSpace=wrap;html=1;" vertex="1" parent="1">
          <mxGeometry x="580" y="270" width="190" height="30" as="geometry" />
        </mxCell>
        <mxCell id="6W57_3QFYtR6JOlb58nx-91" value="+ update(Message)" style="rounded=0;whiteSpace=wrap;html=1;" vertex="1" parent="1">
          <mxGeometry x="580" y="300" width="190" height="30" as="geometry" />
        </mxCell>
        <mxCell id="6W57_3QFYtR6JOlb58nx-92" value="Message" style="rounded=0;whiteSpace=wrap;html=1;" vertex="1" parent="1">
          <mxGeometry x="640" y="40" width="200" height="20" as="geometry" />
        </mxCell>
        <mxCell id="6W57_3QFYtR6JOlb58nx-93" value="- String advRoom&lt;br&gt;- Int advDamage&lt;br&gt;- String name&lt;br&gt;- ArrayList&amp;lt;Treasure&amp;gt;&amp;nbsp; advTreas" style="rounded=0;whiteSpace=wrap;html=1;" vertex="1" parent="1">
          <mxGeometry x="640" y="60" width="200" height="60" as="geometry" />
        </mxCell>
        <mxCell id="6W57_3QFYtR6JOlb58nx-94" value="+ [getters and setters for all vars]" style="rounded=0;whiteSpace=wrap;html=1;" vertex="1" parent="1">
          <mxGeometry x="640" y="120" width="200" height="40" as="geometry" />
        </mxCell>
        <mxCell id="6W57_3QFYtR6JOlb58nx-96" value="" style="endArrow=none;html=1;rounded=0;entryX=0.25;entryY=1;entryDx=0;entryDy=0;exitX=0.584;exitY=0.033;exitDx=0;exitDy=0;exitPerimeter=0;" edge="1" parent="1" source="6W57_3QFYtR6JOlb58nx-88" target="6W57_3QFYtR6JOlb58nx-94">
          <mxGeometry width="50" height="50" relative="1" as="geometry">
            <mxPoint x="690" y="240" as="sourcePoint" />
            <mxPoint x="740" y="190" as="targetPoint" />
          </mxGeometry>
        </mxCell>
        <mxCell id="6W57_3QFYtR6JOlb58nx-97" value="" style="endArrow=none;html=1;rounded=0;exitX=0.632;exitY=-0.167;exitDx=0;exitDy=0;exitPerimeter=0;" edge="1" parent="1" source="6W57_3QFYtR6JOlb58nx-85">
          <mxGeometry width="50" height="50" relative="1" as="geometry">
            <mxPoint x="400" y="370" as="sourcePoint" />
            <mxPoint x="690" y="230" as="targetPoint" />
            <Array as="points">
              <mxPoint x="470" y="230" />
            </Array>
          </mxGeometry>
        </mxCell>
        <mxCell id="6W57_3QFYtR6JOlb58nx-101" style="edgeStyle=orthogonalEdgeStyle;rounded=0;orthogonalLoop=1;jettySize=auto;html=1;exitX=0;exitY=0.5;exitDx=0;exitDy=0;entryX=0;entryY=0;entryDx=0;entryDy=0;endArrow=block;endFill=0;" edge="1" parent="1" source="6W57_3QFYtR6JOlb58nx-98" target="6W57_3QFYtR6JOlb58nx-91">
          <mxGeometry relative="1" as="geometry" />
        </mxCell>
        <mxCell id="6W57_3QFYtR6JOlb58nx-98" value="Logger" style="rounded=0;whiteSpace=wrap;html=1;" vertex="1" parent="1">
          <mxGeometry x="580" y="340" width="120" height="20" as="geometry" />
        </mxCell>
        <mxCell id="6W57_3QFYtR6JOlb58nx-102" style="edgeStyle=orthogonalEdgeStyle;rounded=0;orthogonalLoop=1;jettySize=auto;html=1;exitX=0.75;exitY=0;exitDx=0;exitDy=0;entryX=1;entryY=0;entryDx=0;entryDy=0;endArrow=block;endFill=0;" edge="1" parent="1" source="6W57_3QFYtR6JOlb58nx-99" target="6W57_3QFYtR6JOlb58nx-91">
          <mxGeometry relative="1" as="geometry" />
        </mxCell>
        <mxCell id="6W57_3QFYtR6JOlb58nx-99" value="Tracker" style="rounded=0;whiteSpace=wrap;html=1;" vertex="1" parent="1">
          <mxGeometry x="720" y="340" width="120" height="20" as="geometry" />
        </mxCell>
        <mxCell id="6W57_3QFYtR6JOlb58nx-103" value="Main" style="rounded=0;whiteSpace=wrap;html=1;" vertex="1" parent="1">
          <mxGeometry x="570" y="800" width="230" height="50" as="geometry" />
        </mxCell>
        <mxCell id="6W57_3QFYtR6JOlb58nx-104" value="+ main(String args[])" style="rounded=0;whiteSpace=wrap;html=1;align=left;" vertex="1" parent="1">
          <mxGeometry x="570" y="850" width="230" height="60" as="geometry" />
        </mxCell>
        <mxCell id="6W57_3QFYtR6JOlb58nx-105" value="" style="endArrow=none;html=1;rounded=0;entryX=0.5;entryY=1;entryDx=0;entryDy=0;exitX=0.543;exitY=-0.02;exitDx=0;exitDy=0;exitPerimeter=0;" edge="1" parent="1" source="6W57_3QFYtR6JOlb58nx-103" target="6W57_3QFYtR6JOlb58nx-84">
          <mxGeometry width="50" height="50" relative="1" as="geometry">
            <mxPoint x="400" y="610" as="sourcePoint" />
            <mxPoint x="450" y="560" as="targetPoint" />
          </mxGeometry>
        </mxCell>
        <mxCell id="6W57_3QFYtR6JOlb58nx-106" value="" style="endArrow=none;html=1;rounded=0;entryX=0;entryY=0.5;entryDx=0;entryDy=0;" edge="1" parent="1" target="6W57_3QFYtR6JOlb58nx-76">
          <mxGeometry width="50" height="50" relative="1" as="geometry">
            <mxPoint x="530" y="430" as="sourcePoint" />
            <mxPoint x="580" y="380" as="targetPoint" />
          </mxGeometry>
        </mxCell>
        <mxCell id="6W57_3QFYtR6JOlb58nx-107" value="" style="endArrow=none;html=1;rounded=0;exitX=0.996;exitY=0.15;exitDx=0;exitDy=0;exitPerimeter=0;entryX=1;entryY=0;entryDx=0;entryDy=0;" edge="1" parent="1" source="6W57_3QFYtR6JOlb58nx-76" target="6W57_3QFYtR6JOlb58nx-88">
          <mxGeometry width="50" height="50" relative="1" as="geometry">
            <mxPoint x="780" y="460" as="sourcePoint" />
            <mxPoint x="920" y="410" as="targetPoint" />
            <Array as="points">
              <mxPoint x="860" y="410" />
              <mxPoint x="860" y="270" />
            </Array>
          </mxGeometry>
        </mxCell>
        <mxCell id="6W57_3QFYtR6JOlb58nx-108" value="" style="endArrow=none;html=1;rounded=0;exitX=0.25;exitY=0;exitDx=0;exitDy=0;" edge="1" parent="1" source="6W57_3QFYtR6JOlb58nx-21">
          <mxGeometry width="50" height="50" relative="1" as="geometry">
            <mxPoint x="40" y="810" as="sourcePoint" />
            <mxPoint x="-20" y="810" as="targetPoint" />
          </mxGeometry>
        </mxCell>
        <mxCell id="6W57_3QFYtR6JOlb58nx-111" value="&lt;font style=&quot;font-size: 19px;&quot;&gt;Lola Keychenko&lt;br&gt;Bradley Sides&lt;br&gt;Project 3.2&lt;br&gt;FINAL UML&lt;/font&gt;" style="text;html=1;strokeColor=none;fillColor=none;align=center;verticalAlign=middle;whiteSpace=wrap;rounded=0;" vertex="1" parent="1">
          <mxGeometry x="870" y="40" width="150" height="102.5" as="geometry" />
        </mxCell>
      </root>
    </mxGraphModel>
  </diagram>
</mxfile>
